<svg width="540" height="394" viewBox="0 0 540 394" fill="none" xmlns="http://www.w3.org/2000/svg">
<path fill-rule="evenodd" clip-rule="evenodd" d="M536 0H0V394H512.284L540 366.284V4C540 1.79086 538.209 0 536 0Z" fill="white"/>
<mask id="path-2-inside-1_335_191" fill="white">
<path fill-rule="evenodd" clip-rule="evenodd" d="M532 8H8V386H509.137L532 363.137V8Z"/>
</mask>
<path d="M8 8V7H7V8H8ZM532 8H533V7H532V8ZM8 386H7V387H8V386ZM509.137 386V387H509.551L509.844 386.707L509.137 386ZM532 363.137L532.707 363.844L533 363.551V363.137H532ZM8 9H532V7H8V9ZM9 386V8H7V386H9ZM509.137 385H8V387H509.137V385ZM509.844 386.707L532.707 363.844L531.293 362.43L508.43 385.293L509.844 386.707ZM531 8V363.137H533V8H531Z" fill="#EEEEEE" mask="url(#path-2-inside-1_335_191)"/>
<path d="M496 385.5L531.5 350" stroke="#EEEEEE"/>
</svg>
