<svg width="180" height="180" viewBox="0 0 180 180" fill="none" xmlns="http://www.w3.org/2000/svg">
<path fill-rule="evenodd" clip-rule="evenodd" d="M107.103 12.0932L106.715 12.4329L105.745 12.5314L105.645 12.8675L104.632 12.9172C104.632 12.9172 92.0358 17.9956 77.0236 20.8019C77.4099 20.3668 77.7502 19.8825 77.7502 19.8825C77.7502 19.8825 72.1789 21.2369 70.8199 22.5469C70.4336 22.0113 70.0451 21.6244 70.0451 21.6244L69.7064 22.0605L70.0451 22.5924L69.849 23.0783L69.2724 23.3175H68.8828L68.7365 22.9338L67.1895 22.8793L67.0416 23.7023L66.607 23.9923L65.4436 24.7714L65.0096 25.1054L63.7482 25.0112L63.5086 24.2813C63.5086 24.2813 59.3386 27.8185 55.7092 28.9289C59.8246 24.5719 68.4493 18.2857 68.4493 18.2857L68.3989 17.7559L67.7237 17.7077C67.7237 17.7077 51.9297 28.1551 49.6534 30.1875C51.2058 28.5917 52.6548 27.4295 52.6548 27.4295C52.6548 27.4295 45.9243 30.8645 44.7128 34.101C44.4706 33.6707 44.3752 33.4733 44.3752 33.4733C44.3752 33.4733 45.7781 32.5063 46.458 30.1875C47.8641 27.6248 50.0419 25.1054 50.0419 25.1054L46.458 28.9289L45.2952 29.1708L43.745 31.6393L43.9877 31.8346L41.9541 34.0544L42.3866 34.7779L42.1969 35.6052L41.7103 35.1251L41.1777 34.2968L34.637 41.26L34.2967 40.6322L29.506 44.9384L32.0257 44.2604L25 51.1802C25 51.1802 34.7361 55.5356 50.865 47.9849C66.6754 40.5925 84.2877 45.8176 84.2877 45.8176C84.2877 45.8176 47.8143 50.8896 39.6772 79.7637C32.0659 106.769 61.907 119.236 76.5853 119.384L95.6673 119.241C95.6673 119.241 93.2013 118.946 90.7315 118.072C97.1693 117.64 99.8352 116.771 99.8352 116.771C99.8352 116.771 99.5422 116.818 97.6082 116.191C108.942 115.17 111.945 113.337 111.945 113.337L110.783 113.044V112.802C110.783 112.802 119.258 111.981 134.18 104.627C126.042 108.015 116.834 108.691 116.834 108.691L118.144 107.19C118.144 107.19 119.016 107.432 119.549 107.241C122.212 105.837 122.259 103.807 122.259 103.807C122.259 103.807 122.309 105.403 123.471 104.146C124.828 102.932 123.761 101.919 123.761 101.919L122.99 101.58C122.99 101.58 124.491 99.9853 126.042 98.7785C125.17 98.3874 125.266 97.0314 125.266 97.0314L126.182 96.9372L126.426 96.3539L125.7 96.0633L125.17 95.5843L125.993 95.3398C125.993 95.3398 131.223 87.6039 139.264 80.6847C135.923 82.3799 134.951 82.9092 134.951 82.9092C134.951 82.9092 136.443 80.3581 147.981 73.4786C155.745 68.8474 157.427 64.8186 157.427 64.8186C157.427 64.8186 151.727 73.3664 142.461 73.143C132.572 72.9006 125.23 74.2439 125.17 74.2519C125.217 74.2444 129.734 73.3696 132.291 70.8195C132.291 70.8195 123.446 73.9094 118.194 70.3828C106.228 62.3511 86.7088 65.8829 86.7088 65.8829C86.7088 65.8829 68.3173 68.225 64.5246 82.4302C61.8094 92.5886 73.4392 95.3837 73.4392 95.3837C73.4392 95.3837 80.8687 97.1478 83.6083 90.0724C85.2571 85.8123 81.6717 83.294 81.6717 83.294C81.6717 83.294 75.6392 77.3571 80.1214 72.366C85.1601 66.7536 100.465 70.4268 100.465 70.4268C100.465 70.4268 121.199 75.5586 107.635 99.935C98.8192 115.414 79.6381 113.87 79.6381 113.87C79.6381 113.87 60.1659 114.736 57.7449 94.3268C57.0654 88.23 57.9367 84.9385 57.9367 84.9385L58.8574 84.1562L58.4583 83.863V83.466C58.4583 83.466 58.4954 83.0654 59.2586 83.0654C60.0175 83.0654 59.6571 82.1936 59.6571 82.1936L58.8213 82.1206C58.8213 82.1206 58.7832 81.2192 59.6195 80.5296C59.2183 80.4179 59.2586 80.2004 59.2586 80.2004C59.2586 80.2004 59.6571 79.262 60.4908 79.6192C60.5629 80.9641 61.4008 80.0215 61.4008 80.0215C61.4008 80.0215 60.5295 80.166 61.0733 78.205C61.9812 76.2478 64.8866 74.544 64.8866 74.544C64.8866 74.544 64.4504 74.5043 64.0524 74.0714C66.7045 73.2018 67.7566 70.9852 67.7566 70.9852L67.3188 70.8788C67.3188 70.8788 66.9939 71.3477 66.3044 71.2419C66.4506 70.6951 66.6695 70.4427 66.6695 70.4427L66.3044 70.376V69.5725L65.3599 69.5011C65.3599 69.5011 64.6683 69.0628 65.3944 68.3023C67.2854 67.9376 67.1407 66.0163 67.1407 66.0163L67.8297 66.2349L68.3014 65.5103L68.5934 64.7095L68.957 64.3121L70.0822 64.7815L70.7351 65.1102L72.3718 66.5271L71.0266 64.1623L71.3187 63.5478L71.4989 62.965L70.5921 62.8597L70.5555 62.4241L71.4989 62.06L71.5731 61.771L71.8635 61.6614L72.0077 60.7929L73.4233 60.6876L74.0805 59.2336C74.0805 59.2336 81.5763 48.7 99.3021 49.7289C112.668 50.5001 116.072 58.5874 132.05 57.4653C141.732 56.7926 144.345 57.8533 144.345 57.8533C144.345 57.8533 139.411 54.3701 134.18 54.0843C139.506 53.79 143.673 53.21 143.673 53.21L142.992 52.8469L142.338 52.487L141.829 52.2647L141.177 52.7056L140.304 52.777L138.926 52.1943L138.271 51.9778L137.616 52.0487L136.963 52.8469L136.017 52.7056L133.331 52.1943L136.235 52.0487L137.105 51.4676L137.762 51.1077H138.633L138.707 51.6121L140.159 51.7597L140.81 52.1943L141.758 51.7597L142.703 52.0487L143.429 51.7597L144.152 51.3967L144.664 51.2543L145.463 51.4676L146.772 50.3074L147.424 50.2375L147.855 50.9621L148.224 51.2543L147.855 51.8301H148.586L148.803 50.8896L148.661 50.5239L149.674 50.2375H150.768L150.913 50.9621L151.274 50.5239L151.347 50.0179L152.293 49.3669L155.923 47.4075L157.157 47.0428L157.739 46.6094L160.428 46.3156C160.428 46.3156 164.136 45.156 167.187 41.2409C167.187 41.2409 155.197 49.0017 137.324 44.7945C124.87 41.857 122.868 38.7718 122.868 38.7718L123.811 38.4082L122.36 37.9742L121.633 37.6148L120.323 37.7567L119.308 36.9591H117.346L117.054 36.4494L115.093 36.3044L114.872 35.9402L118.799 35.8661L119.669 36.6711L120.614 36.5214L121.778 37.103L122.289 37.1777L122.94 37.6148H124.248L124.684 38.1896L124.32 38.6258L124.974 39.353L125.848 39.5679V38.6258L125.337 38.0462L125.848 37.2518H125.118L124.759 36.9591L124.609 35.6486L123.74 35.4348C123.74 35.4348 110.368 27.3077 99.327 31.9548C99.327 31.9548 99.981 31.1529 101.192 30.7194C101.532 30.6729 101.289 30.332 101.289 30.332L101.578 30.1875L103.128 30.2828L102.983 29.9451L105.212 29.8969L105.067 29.4127L106.33 29.3888L105.016 29.0226L104.467 29.735L104.028 29.2369L103.369 29.0226L103.472 29.7879L102.694 29.6095L101.725 29.8969L101.048 30.0414L100.272 29.8969L100.222 29.4624L99.3519 30.0414L98.8648 29.9451L98.1859 29.8467L98.0926 28.5917L99.3021 27.8613C99.3021 27.8613 89.4685 27.475 80.5104 30.9592C71.5476 34.4429 70.6281 36.0408 60.6493 38.1208C68.3517 35.6486 72.8541 32.6063 75.1808 31.1529C81.624 27.475 95.1379 20.126 99.7377 17.4166C99.8352 16.8815 99.981 16.8815 99.981 16.8815L100.514 17.2197L101.241 16.4009L102.018 16.2083V15.9145L103.227 15.8685L103.273 15.4324L103.857 15.4821L104.002 15.047L105.016 14.757L103.809 14.6099L103.757 14.2727L105.016 14.1727L105.165 13.7895L105.789 14.1266L106.856 12.9659L107.731 12.8214L108.214 12L107.103 12.0932ZM109.235 28.2382L107.828 28.8315L107.248 28.8786L106.959 28.7934L106.805 28.913L106.607 29.383L107.635 29.365L107.778 29.1221L112.624 28.7336L119.258 28.3467L113.301 28.0069L112.815 28.4478L111.992 28.3964L111.894 28.2541L111.392 28.0778L110.443 28.5917H109.862L109.717 27.7184L109.235 28.2382ZM106.33 29.3888L106.577 29.4571L106.607 29.383L106.33 29.3888Z" fill="#E41E26"/>
<path fill-rule="evenodd" clip-rule="evenodd" d="M56.9663 160.801H55.1781L54.8498 156.062H54.7745C53.0237 159.781 49.5154 161.351 45.7557 161.351C37.5389 161.351 33.4492 154.896 33.4492 147.786C33.4492 140.677 37.5389 134.222 45.7557 134.222C51.2322 134.222 55.6887 137.176 56.6396 142.864H54.1547C53.8275 139.874 50.7211 136.337 45.7557 136.337C38.8527 136.337 35.933 142.097 35.933 147.786C35.933 153.474 38.8527 159.234 45.7557 159.234C51.5232 159.234 54.8849 155.187 54.7745 149.682H45.9017V147.565H56.9663V160.801Z" fill="#E41E26"/>
<path fill-rule="evenodd" clip-rule="evenodd" d="M73.3601 150.521H73.2882C72.9955 151.068 71.9733 151.249 71.3506 151.359C67.4449 152.052 62.5871 152.015 62.5871 155.7C62.5871 157.996 64.6311 159.417 66.7877 159.417C70.2932 159.417 73.3963 157.194 73.3601 153.511V150.521ZM61.0898 147.75C61.3095 143.338 64.4142 141.442 68.723 141.442C72.0474 141.442 75.6611 142.463 75.6611 147.495V157.485C75.6611 158.363 76.0997 158.87 77.0111 158.87C77.2686 158.87 77.5613 158.798 77.7419 158.724V160.656C77.2313 160.766 76.8662 160.801 76.2452 160.801C73.9086 160.801 73.544 159.489 73.544 157.522H73.4699C71.8634 159.964 70.2202 161.351 66.6054 161.351C63.1344 161.351 60.2866 159.637 60.2866 155.843C60.2866 150.558 65.4371 150.375 70.4019 149.792C72.301 149.573 73.3601 149.317 73.3601 147.238C73.3601 144.142 71.1327 143.375 68.4304 143.375C65.5809 143.375 63.4622 144.687 63.3903 147.75H61.0898Z" fill="#E41E26"/>
<path fill-rule="evenodd" clip-rule="evenodd" d="M80.2607 141.988H82.3772V146.401H82.4491C83.6197 143.375 86.176 141.587 89.5717 141.734V144.032C85.4078 143.813 82.5623 146.873 82.5623 150.775V160.801H80.2607V141.988Z" fill="#E41E26"/>
<path fill-rule="evenodd" clip-rule="evenodd" d="M104.653 150.084C104.544 146.619 102.388 143.375 98.663 143.375C94.9028 143.375 92.8203 146.656 92.4568 150.084H104.653ZM92.4568 152.015C92.4925 155.371 94.245 159.417 98.663 159.417C102.025 159.417 103.85 157.448 104.58 154.603H106.881C105.896 158.87 103.413 161.351 98.663 161.351C92.6748 161.351 90.1553 156.755 90.1553 151.397C90.1553 146.436 92.6748 141.442 98.663 141.442C104.727 141.442 107.136 146.728 106.953 152.015H92.4568Z" fill="#E41E26"/>
<path fill-rule="evenodd" clip-rule="evenodd" d="M110.018 141.988H112.32V145.235H112.393C113.233 142.973 115.752 141.442 118.419 141.442C123.714 141.442 125.32 144.212 125.32 148.697V160.801H123.018V149.061C123.018 145.817 121.961 143.375 118.236 143.375C114.582 143.375 112.393 146.145 112.32 149.829V160.801H110.018V141.988Z" fill="#E41E26"/>
<path fill-rule="evenodd" clip-rule="evenodd" d="M141.715 150.521H141.641C141.351 151.068 140.327 151.249 139.707 151.359C135.798 152.052 130.941 152.015 130.941 155.7C130.941 157.996 132.985 159.417 135.139 159.417C138.646 159.417 141.75 157.194 141.715 153.511V150.521ZM129.444 147.75C129.662 143.338 132.768 141.442 137.076 141.442C140.399 141.442 144.014 142.463 144.014 147.495V157.485C144.014 158.363 144.452 158.87 145.364 158.87C145.62 158.87 145.914 158.798 146.095 158.724V160.656C145.583 160.766 145.218 160.801 144.597 160.801C142.261 160.801 141.897 159.489 141.897 157.522H141.824C140.215 159.964 138.573 161.351 134.956 161.351C131.489 161.351 128.641 159.637 128.641 155.843C128.641 150.558 133.789 150.375 138.753 149.792C140.655 149.573 141.715 149.317 141.715 147.238C141.715 144.142 139.486 143.375 136.783 143.375C133.935 143.375 131.818 144.687 131.744 147.75H129.444Z" fill="#E41E26"/>
</svg>
